<svg width="190" height="190" viewBox="0 0 190 190" fill="none" xmlns="http://www.w3.org/2000/svg">
    <path d="M56.7778 169.186C49.5397 162.804 41.8187 156.685 36.5426 148.069C25.4409 132.876 16.893 115.285 11.0494 96.7985C7.5173 84.778 6.30762 71.8906 1.7543 60.3345C-3.00893 51.9413 2.57054 42.7662 10.772 40.0982C14.4235 39.3126 20.8439 35.4518 13.0938 38.2113C6.14559 43.9258 5.47315 33.0241 12.598 32.3338C17.4604 31.6093 19.2503 27.1472 17.5875 23.1303C12.368 19.3148 30.2441 15.1215 21.2496 9.42829C11.8797 -1.90372 34.356 -4.08516 28.8107 8.78453C27.4834 18.6808 44.5161 6.97074 40.5641 18.3988C44.5809 23.8869 55.6059 19.6479 55.3324 27.3472C61.1838 27.7981 63.192 33.3171 68.685 33.7408C74.3778 36.6227 84.6981 38.8937 86.6353 46.0851C80.9873 51.0975 67.9086 35.7313 67.2803 49.6063C68.9865 70.103 68.5518 91.2172 75.2416 110.736C78.4058 122.555 86.0767 131.859 93.0043 141.064C99.6326 150.079 108.611 156.425 117.762 161.769C125.79 166.013 134.444 168.828 143.193 170.594C146.741 167.551 153.006 156.24 158.542 161.01C158.804 166.369 147.555 172.213 158.012 171.621C164.153 169.544 168.412 176.944 173.469 170.269C178.128 176.455 192.833 166.317 189.518 178.961C185.036 182.203 178.498 180.244 174.009 184.704C166.606 180.559 160.713 188.412 152.518 187.419C143.417 189.246 134.158 189.984 124.931 190C109.794 188.659 94.3364 188.094 79.9362 182.186C71.824 179.544 63.9075 174.366 56.7778 169.186V169.186ZM69.5618 175.395C77.4831 179.235 85.2287 183.282 93.9098 184.503C107.683 186.65 121.906 189.953 135.728 186.94C129.472 183.774 123.005 188.174 116.772 184.676C109.298 186.479 101.276 184.217 93.6776 183.103C85.0363 178.788 75.711 175.821 67.6188 170.22C57.5074 166.08 72.8483 175.53 75.579 176.295C81.9 180.317 68.628 174.233 66.7569 172.562C61.4627 169.232 60.788 169.928 66.2327 173.309C67.3293 174.028 68.413 174.782 69.5618 175.395V175.395ZM54.4891 163.454C62.165 166.641 54.4552 157.403 50.9378 157.94C49.3794 154.909 44.9838 152.995 48.0845 151.367C42.507 153.537 42.2418 143.113 39.6201 144.602C33.7196 142.513 37.3236 135.115 30.2951 130.571C29.6535 125.784 23.3119 121.631 21.2892 114.41C20.3959 110.712 14.1246 100.095 17.977 109.976C21.2572 119.488 27.0284 127.635 31.8312 135.771C35.5605 143.519 39.9641 151.615 46.7559 156.448C49.0454 158.91 51.2559 162.683 54.4891 163.454ZM32.3763 136.239C32.6442 134.94 33.7801 139.051 32.3763 136.239V136.239ZM63.6817 167.275C65.3815 166.422 61.2375 166.2 63.6817 167.275V167.275ZM67.8486 168.979C67.417 166.626 65.9464 170.294 67.8486 168.979V168.979ZM73.0642 171.418C75.5474 168.767 69.2375 169.746 73.0642 171.418V171.418ZM82.0036 177.003C83.5125 174.503 77.1743 176.059 82.0036 177.003V177.003ZM64.8376 163.589C68.6944 160.792 59.8561 163.55 64.8376 163.589V163.589ZM68.7503 165.776C68.641 164.297 67.3559 166.438 68.7503 165.776V165.776ZM88.3058 179.458C91.4494 181.682 106.663 184.332 97.1367 180.37C95.5426 180.747 79.4718 175.274 88.3058 179.458ZM57.2609 152.354C56.9552 150.871 52.3813 150.717 57.2609 152.354V152.354ZM66.3646 158.302C68.7339 156.449 61.4471 156.873 66.3646 158.302V158.302ZM74.0222 163.565C77.4221 162.128 68.5067 162.121 74.0222 163.565V163.565ZM53.5564 147.831C57.2453 151.003 68.4334 148.238 59.2057 145.938C55.0058 143.429 45.5402 141.711 51.9922 147.452L53.5564 147.832L53.5564 147.831ZM79.2087 165.382C80.7452 162.448 72.765 163.706 79.2087 165.382V165.382ZM71.4137 158.438C80.4339 161.298 63.8286 152.043 69.1882 157.385L70.3761 157.988L71.4137 158.438L71.4137 158.438ZM87.0419 168.563C95.5846 168.655 79.326 167.243 87.0419 168.563V168.563ZM50.2695 142.291C49.9359 140.507 48.1614 142.441 50.2695 142.291V142.291ZM101.492 177.65C101.72 174.428 98.7046 180.047 101.492 177.65V177.65ZM64.8478 152.299C64.3311 150.602 62.1786 152.229 64.8478 152.299V152.299ZM51.0797 141.172C55.984 140.842 44.3653 138.749 51.0797 141.172V141.172ZM34.7695 129.354C34.1591 126.718 29.4328 124.616 34.7695 129.354V129.354ZM77.5876 159.815C76.6894 158.666 77.1651 160.066 77.5876 159.815V159.815ZM104.239 178.149C104.154 176.394 102.788 178.813 104.239 178.149V178.149ZM75.229 157.085C75.7087 154.824 71.0471 156.4 75.229 157.085V157.085ZM55.374 142.979C59.0226 142.541 49.5292 140.214 55.374 142.979V142.979ZM88.9605 166.374C94.6462 163.849 83.4189 165.141 88.9605 166.374V166.374ZM71.4902 153.08C78.043 154.027 63.6934 148.084 70.0525 152.548L71.4902 153.08L71.4902 153.08V153.08ZM94.2643 168.777C100.382 164.677 98.3651 178.378 104.644 169.935C110.837 164.866 99.2953 176.201 106.928 170.838C112.448 166.7 120.601 172.8 125.752 174.791C129.456 174.587 133.056 178.381 136.854 176.073C144.163 173.866 122.56 172.799 128.223 168.884C121.534 171.066 116.593 166.282 113.302 161.48C105.799 159.538 97.1249 155.238 93.3807 147.795C91.8541 145.001 95.586 148.189 92.0628 143.621C87.5421 139.114 85.2847 133.997 82.2499 128.518C78.6245 126.35 78.2021 119.969 77.8356 128.304C77.8643 123.044 73.4584 119.503 72.383 120.975C72.3637 115.908 77.0982 118.448 73.7839 114.699C73.0705 109.448 70.7217 103.976 70.0157 98.0473C68.9188 95.1894 69.8613 89.0685 66.2719 95.5381C64.9643 102.376 65.8379 87.1357 67.8715 92.1612C70.5406 87.0331 66.9132 87.6363 66.7646 88.3483C68.5033 84.0216 67.8651 77.8843 66.311 80.2257C67.2374 75.6398 67.7746 63.3485 64.9243 65.5267C66.6521 60.7313 68.201 43.5838 60.7005 50.1216C57.6607 50.1694 52.3966 51.3585 49.9083 52.7458C57.7102 57.5667 49.1235 54.4868 45.9476 53.7205C45.5338 58.1813 42.3881 56.2521 38.4582 56.2958C44.7352 57.1663 35.4016 63.4923 31.8007 61.035C27.1241 63.5405 35.8367 69.7948 31.8945 71.7285C32.379 74.6438 24.73 70.6757 25.3307 77.4083C20.7907 75.2673 24.7056 85.3947 26.9769 81.9696C34.6987 84.3123 32.4129 89.6533 32.6095 94.7269C31.3514 97.6833 26.3979 87.7778 31.5063 88.2366C27.4762 80.8977 27.0483 85.5839 23.6994 88.9932C22.9203 89.2408 32.2417 93.8441 26.392 96.1203C31.5385 97.0105 31.6849 102.059 32.7326 105.254C35.8259 108.865 35.1928 101.266 38.8941 105.606C36.5519 101.739 26.4879 94.7111 34.5908 96.9652C34.5475 93.0735 33.1253 89.9352 35.6078 90.0114C38.0662 85.0206 33.0331 102.316 38.5744 95.9736C40.1083 95.2228 40.4883 90.9766 43.2455 96.3746C47.2501 100.791 44.692 103.991 39.0429 99.9472C40.0536 103.791 46.5999 105.164 45.3697 111.174C46.6738 116.46 48.4985 114.513 50.0889 114.208C51.3365 119.344 52.045 115.567 52.1042 113.123C57.8167 114.494 56.4786 118.279 58.266 120.924C62.2024 122.916 52.6317 107.423 59.3898 116.265C66.5 123.462 62.0564 126.465 55.6756 125.313C59.7141 124.947 61.0165 131.433 66.0679 131.205C70.6744 133.662 73.7932 143.097 65.8531 139.169C63.0992 136.385 53.3536 132.952 61.3135 138.246C68.6652 142.062 74.5042 144.346 81.5947 149.136C86.6691 153.197 88.8614 157.848 90.7847 158.769C86.5198 161.052 77.9322 156.945 84.309 155.687C80.3316 154.874 75.858 152.62 79.6677 158.175C82.9072 161.207 91.1448 160.886 92.6215 161.229C91.3698 164.321 89.2215 164.567 92.6728 164.807C88.8225 167.107 93.9074 167.463 94.2642 168.777H94.2643ZM86.3908 143.853C84.0483 141.107 83.4426 135.963 85.9748 140.439C87.2734 141.023 90.1347 148.844 86.3908 143.853H86.3908ZM112.032 162.111C113.493 162.005 112.074 163.355 112.032 162.111V162.111ZM82.692 137.119C82.6022 132.968 83.5394 140.322 82.692 137.119V137.119ZM80.1436 133.276C77.1972 126.894 83.8582 135.083 80.1436 133.276V133.276ZM49.2613 109.382C50.9924 108.865 50.113 112.701 49.2613 109.382V109.382ZM73.8397 124.316C74.9028 119.841 75.089 128.071 73.8397 124.316V124.316ZM56.4758 110.782C55.2518 108.312 59.0362 113.098 56.4758 110.782V110.782ZM71.3777 116.137C68.5862 109.126 73.354 112.307 71.9953 117.286L71.3777 116.137ZM45.6793 96.925C44.4313 94.625 42.3669 87.8763 43.0315 85.8161C43.6327 89.1714 49.3966 100.255 45.8588 90.4076C41.9493 82.1525 50.5321 93.0871 51.415 95.1461C51.8261 97.1944 49.0029 94.5865 50.9158 99.3893C47.4273 93.9212 48.8564 102.41 45.6793 96.925V96.925ZM37.7371 90.7902C38.064 85.4423 39.5552 94.4573 37.7371 90.7902V90.7902ZM41.3096 92.1687C43.0143 88.1322 44.2002 97.7959 41.3096 92.1687V92.1687ZM32.7158 84.7165C29.7589 81.4227 27.6191 78.3865 32.8542 82.6723C34.8713 82.7605 28.3725 75.7676 33.34 80.4516C38.5634 81.5193 35.9193 90.0523 32.7158 84.7165ZM37.23 84.5842C38.9472 82.6767 38.1416 86.462 37.23 84.5842V84.5842ZM40.0076 85.5824C37.4043 80.1124 43.1672 87.8757 40.0076 85.5824V85.5824ZM34.4859 79.6671C25.8899 71.0918 45.2873 84.1512 35.8902 81.2569L34.4858 79.6672L34.4859 79.6671V79.6671ZM59.1147 95.7082C55.3949 93.208 58.1289 78.1069 59.3975 88.435C63.0137 87.1237 59.1978 93.7689 61.895 93.7074C61.47 97.9001 60.2633 99.4075 59.1147 95.7082ZM68.2243 101.744C68.5892 97.1926 68.9921 104.855 68.2243 101.744V101.744ZM66.642 99.991C67.0516 98.0468 66.6844 102.281 66.642 99.991V99.991ZM36.1721 76.8492C30.6498 68.3083 52.2215 85.4888 39.7091 79.0155C38.4016 78.6322 36.8285 78.4954 36.1721 76.8492ZM53.7142 87.2752C53.1916 80.0836 54.8813 88.4673 53.714 87.2752L53.7142 87.2752ZM67.0327 96.8526C68.0634 92.7561 67.1096 99.5625 67.0327 96.8526V96.8526ZM37.0181 73.5896C40.3002 72.8026 50.6198 80.0512 41.1431 75.6601C40.0902 74.3534 37.8454 74.9471 37.0181 73.5896ZM65.2029 89.3365C65.5537 81.9828 67.1623 84.944 65.215 90.3891L65.203 89.3365L65.2029 89.3365H65.2029ZM39.4613 71.0307C40.7986 68.8317 35.9113 61.0888 40.1657 68.2533C42.0041 69.8907 45.4884 70.9964 42.4121 71.6852C47.2503 76.4697 41.232 72.9817 39.4613 71.0307V71.0307ZM63.8088 87.0395C64.7327 78.6626 64.6236 91.9473 63.8088 87.0395V87.0395ZM36.6683 63.2936C37.6897 62.8042 37.2077 64.8193 36.6683 63.2936V63.2936ZM43.0192 67.5309C44.6536 63.6864 46.0343 71.8187 43.0192 67.5309V67.5309ZM60.9334 78.7021C60.9161 77.2256 61.2714 80.8498 60.9334 78.7021V78.7021ZM59.8957 76.1268C57.4093 69.2504 62.2085 79.7675 59.8957 76.1268V76.1268ZM58.369 71.6183C57.9517 68.777 59.7875 75.188 58.369 71.6183L58.369 71.6183ZM60.8536 67.0908C59.1474 63.7203 63.0083 52.2375 63.4391 59.359C61.6382 64.908 62.9196 68.0121 64.1759 60.5695C66.4959 54.712 63.6747 72.1281 60.8536 67.0909L60.8536 67.0908V67.0908ZM63.407 50.0141C64.1507 48.9903 63.572 51.2476 63.407 50.0141V50.0141ZM59.1429 144.201C58.1316 143.212 59.27 144.831 59.1429 144.201V144.201ZM67.9271 149.182C72.8133 150.587 72.7883 148.33 68.3722 147.659C65.9969 145.182 58.5019 142.555 65.2103 147.352C65.6546 148.613 67.0585 148.584 67.9271 149.182V149.182ZM50.5787 136.265C53.2706 138.516 60.7181 142.643 54.4135 137.122C56.5391 134.353 50.345 132.88 52.3997 131.028C47.1734 127.443 48.2769 127.762 51.9384 127.875C45.6574 124.728 52.8451 124.963 52.5066 123.35C50.0847 122.814 40.4769 118.563 46.1291 123.7C40.3833 120.416 44.7599 124.923 43.0232 124.446C37.1477 122.651 48.2557 129.463 42.0901 127.772C45.4608 130.766 51.163 135.442 43.5152 130.941C42.5075 132.567 48.988 135.031 50.5787 136.265ZM59.7659 142.182C70.9365 146.217 54.2893 137.252 59.7659 142.182V142.182ZM106.795 174.119C106.939 171.635 105.269 176.238 106.795 174.119V174.119ZM111.629 176.4C114.206 173.6 111.734 180.859 115.9 175.714C115.945 172.032 115.771 169.856 111.113 174.33C109.829 175.128 109.256 178.523 111.629 176.4V176.4ZM34.8987 122.382C34.1072 118.894 29.3506 118.912 34.8987 122.382V122.382ZM40.0602 126.173C38.1435 122.611 33.2214 122.948 40.0602 126.173V126.173ZM69.4245 146.025C72.2914 148.879 82.5918 148.119 72.9065 146.376C71.4721 143.998 63.798 144.57 69.4245 146.025ZM109.791 173.97C114.203 169.82 105.515 175.822 109.791 173.97V173.97ZM118.967 181.039C118.995 179.707 117.066 181.622 118.967 181.039V181.039ZM118.982 179.175C123.868 173.371 114.247 179.518 118.982 179.175H118.982ZM22.2036 110.468C18.039 103.807 19.6148 100.813 15.5987 95.374C14.8384 91.215 8.70907 81.7773 12.4285 91.7758C15.8352 97.6234 16.8476 106.677 22.2036 110.468V110.468ZM117.449 177.33C126.438 170.816 113.759 174.492 117.449 177.33V177.33ZM124.311 180.343C128.813 176.01 121.464 179.437 124.311 180.343V180.343ZM33.3687 115.019C34.6571 112.871 30.0414 114.744 33.3687 115.019V115.019ZM122.878 178.286C127.237 175.135 121.874 175.619 122.088 178.575L122.878 178.286H122.878ZM63.7253 136.491C63.5755 134.363 61.4236 136.671 63.7253 136.491V136.491ZM67.3809 138.848C66.2191 136.215 65.5947 139.262 67.3809 138.848V138.848ZM129.872 180.415C135.456 175.899 126.487 179.55 128.7 181.27L129.872 180.415ZM127.734 179.256C132.283 174.983 122.931 181.15 127.734 179.256V179.256ZM138.659 187.412C141.713 185.119 134.948 186.67 138.659 187.412V187.412ZM36.1698 113.47C40.2638 114.498 52.5304 124.772 45.2936 114.18C41.5872 112.95 43.8101 102.794 40.0295 104.592C42.567 109.344 42.1172 111.366 36.7896 108.37C30.0937 104.706 33.0267 110.186 34.3353 111.697C32.552 112.151 36.6942 113.432 36.1698 113.47V113.47ZM17.5177 96.9572C18.2506 93.559 10.7691 78.2625 13.9848 89.2925C15.1456 91.6031 15.0276 95.982 17.5177 96.9572ZM51.7523 120.617C49.6442 118.641 51.6521 120.337 51.7523 120.617V120.617ZM56.9437 121.971C56.941 118.372 51.2054 120.51 56.9437 121.971V121.971ZM101.931 153.763C101.073 151.303 98.5391 153.706 101.931 153.763L101.931 153.763ZM104.091 155.532C103.772 154.155 102.845 155.797 104.091 155.532V155.532ZM121.922 168.122C123.637 166.702 119.782 167.941 121.922 168.122V168.122ZM26.8346 99.6235C31.7399 97.4946 21.5789 98.1054 26.8346 99.6235V99.6235ZM97.9704 149.861C97.9158 146.302 94.8432 150.745 97.9704 149.861V149.861ZM24.8965 94.5608C28.0474 93.3677 21.9816 93.775 24.8965 94.5608V94.5608ZM34.0422 99.527C33.9851 98.357 33.0748 99.9699 34.0422 99.527V99.527ZM145.593 176.207C149.645 175.286 158.878 178.519 160.371 175.003C155.45 174.869 143.347 171.112 142.774 175.9L143.852 176.09L145.593 176.207V176.207ZM36.949 100.348C37.0194 96.7409 34.4396 100.213 36.949 100.348V100.348ZM12.9025 81.6496C11.8104 74.7768 8.74903 80.6094 12.9025 81.6496V81.6496ZM18.6367 83.2653C18.7071 81.0584 13.3882 81.2795 18.6367 83.2653V83.2653ZM21.9136 85.0694C20.9664 84.2093 21.1722 86.156 21.9136 85.0694V85.0694ZM42.5326 99.8967C43.5033 98.8971 40.2345 99.1563 42.5326 99.8967V99.8967ZM19.731 81.0005C19.1768 75.8096 13.0896 80.2228 19.731 81.0005V81.0005ZM7.97499 72.4497C7.80779 70.054 6.82935 73.3534 7.97499 72.4497V72.4497ZM9.72366 70.9693C9.43837 68.1286 8.2223 71.3307 9.72366 70.9693V70.9693ZM19.3855 77.4343C23.4711 75.6353 11.9437 73.7131 18.5507 77.0944L19.3855 77.4343ZM148.694 166.969C151.309 164.282 145.371 166.138 148.694 166.969V166.969ZM164.316 176.046C165.364 172.572 161.677 176.504 164.316 176.046V176.046ZM20.3729 71.7575C20.8033 68.3963 17.1339 72.425 20.3729 71.7575V71.7575ZM6.62646 61.4333C5.888 56.6878 5.98901 48.3582 13.0524 51.1732C3.62395 53.2716 19.5779 64.3096 17.5632 55.5947C21.5277 55.8123 25.3186 52.9682 23.2381 57.2843C31.0492 56.3172 36.4646 48.7244 44.0096 49.7884C49.8868 48.9165 56.3127 48.2553 62.6461 45.6033C67.8534 45.1828 72.8661 38.8981 70.0119 35.173C62.9106 34.4994 55.4772 35.4954 47.6283 37.2443C38.9308 39.2711 31.0306 43.1219 22.255 44.7749C13.7013 46.0629 23.9755 48.3238 21.5253 48.8274C17.0619 50.5635 26.8484 51.7342 20.9467 53.5643C17.3019 52.7875 13.5082 51.3836 15.0651 47.0781C6.87138 48.2699 -0.328533 52.082 6.14499 61.4289L6.62645 61.4331L6.62646 61.4328V61.4333ZM26.3703 50.1613C28.2914 42.2278 36.6628 56.6896 29.5192 51.2151C28.6659 50.4992 27.2626 49.9153 26.3703 50.1613ZM26.7441 46.3149C29.5168 43.9993 28.218 47.6131 26.7441 46.3149V46.3149ZM30.2648 46.3775C30.5151 42.7269 38.3244 48.3101 31.5525 47.6917L30.2648 46.3775ZM35.0809 44.2069C36.8396 41.9033 35.5864 46.2559 35.0809 44.2069V44.2069ZM36.3129 43.282C39.2414 39.3376 52.8973 40.7646 42.9017 42.8975C40.2225 40.6364 38.1688 44.2307 36.3129 43.282ZM54.1342 40.2026C53.6887 29.4281 62.988 44.0314 54.1342 40.2026V40.2026ZM59.1909 40.1715C61.0397 34.7411 66.3652 37.9925 60.0464 39.0803C60.1836 39.6582 59.8611 41.8838 59.1909 40.1715ZM18.3789 68.9702C23.9028 65.1784 12.5148 65.6805 18.3789 68.9702V68.9702ZM22.4632 70.2424C24.3999 67.934 18.255 69.3061 22.4632 70.2424V70.2424ZM10.429 60.6683C13.5853 57.9503 6.69392 59.6349 10.429 60.6683V60.6683ZM173.536 175.053C173.628 171.9 171.124 176.474 173.536 175.053V175.053ZM156.963 162.375C157.434 158.744 154.833 162.691 156.963 162.375V162.375ZM178.094 176.276C182.507 176.293 191.465 174.74 181.863 174.745C180.356 175.008 173.084 174.952 178.094 176.276L178.094 176.276V176.276ZM26.0559 68.0172C29.6273 67.7422 31.6436 63.6009 25.3651 63.839C15.6345 62.7097 33.9503 67.5739 24.1169 66.1831C22.7955 67.1639 25.9791 68.2886 26.0559 68.0172ZM29.2013 69.8018C28.8284 67.2313 28.0969 71.1673 29.2013 69.8018V69.8018ZM32.9324 58.6489C34.4823 56.494 30.7878 58.0728 32.9324 58.6489V58.6489ZM21.0548 36.3928C27.4288 33.962 36.1451 31.2307 39.1547 37.5896C36.0918 33.4572 37.9186 29.389 40.8115 35.431C44.9022 41.5442 46.95 32.6506 44.2894 30.6001C47.3214 34.8231 50.7699 36.8187 46.3194 30.867C51.1556 24.3458 36.6358 31.721 33.3356 31.6467C31.7477 32.4456 16.942 35.8794 21.0548 36.3928V36.3928ZM24.7903 28.3731C28.4254 25.2974 37.3626 30.2025 31.6277 25.3164C31.067 24.7613 19.0682 29.0216 24.7903 28.3731V28.3731ZM38.0429 28.9864C42.2974 29.1081 36.2078 22.5795 41.2775 25.5378C40.4449 22.4887 35.375 21.9179 32.8963 20.6997C31.4944 23.4874 35.7499 29.0239 38.0429 28.9864ZM27.1141 15.5009C28.5859 13.2643 24.5346 16.6348 27.1141 15.5009V15.5009ZM32.5306 16.9542C39.3867 15.9348 30.783 13.6444 31.1491 16.8723L32.5306 16.9542V16.9542V16.9542ZM22.4168 8.08293C17.5894 1.01877 31.4954 9.2704 26.5908 1.87397C22.4627 -1.81091 18.4959 6.02072 22.4168 8.08293ZM84.369 45.4893C86.5832 41.0894 75.2278 39.5585 82.8772 43.9299C83.5815 44.1937 83.4221 45.7936 84.369 45.4893Z" fill="white"/>
</svg>